<svg viewBox="0 0 335 265" fill="none" xmlns="http://www.w3.org/2000/svg">
<path d="M253.837 160.014C240.747 159.924 227.881 156.616 216.372 150.381C204.863 144.147 195.064 135.176 187.839 124.261C180.614 113.346 176.186 100.821 174.943 87.7906C173.701 74.7601 175.683 61.6241 180.715 49.5404C185.747 37.4566 193.674 26.7962 203.798 18.4988C213.922 10.2014 225.931 4.52174 238.768 1.96049C251.604 -0.60075 264.874 0.0350809 277.406 3.81187C289.939 7.58867 301.351 14.3905 310.635 23.6178C318.041 31.0869 323.887 39.9558 327.831 49.7073C331.775 59.4588 333.739 69.8978 333.607 80.4159C333.684 90.917 331.667 101.328 327.674 111.041C323.682 120.753 317.793 129.573 310.353 136.984C302.912 144.395 294.07 150.248 284.341 154.203C274.613 158.157 264.194 160.132 253.693 160.014H253.837ZM253.837 32.5768C247.625 32.4433 241.453 33.5935 235.707 35.9553C229.96 38.3171 224.764 41.8397 220.441 46.3026C215.897 50.733 212.304 56.0427 209.88 61.9078C207.456 67.7729 206.252 74.0703 206.342 80.4159C206.244 86.6165 207.414 92.7718 209.779 98.5044C212.144 104.237 215.655 109.426 220.097 113.754C224.496 118.235 229.745 121.794 235.535 124.224C241.326 126.653 247.543 127.905 253.822 127.905C260.102 127.905 266.319 126.653 272.109 124.224C277.9 121.794 283.148 118.235 287.548 113.754C291.999 109.432 295.518 104.244 297.888 98.5108C300.259 92.7774 301.43 86.6193 301.331 80.4159C301.439 74.133 300.287 67.8922 297.942 62.062C295.598 56.2319 292.109 50.9306 287.682 46.4713C283.254 42.0119 277.979 38.4848 272.166 36.0984C266.353 33.712 260.12 32.5145 253.837 32.5768Z" fill="#9A6AFF" fill-opacity="0.4"/>
<path d="M79.2537 160.014C66.1645 159.924 53.2981 156.616 41.7889 150.381C30.2796 144.147 20.4806 135.176 13.2559 124.261C6.03125 113.346 1.60261 100.821 0.360255 87.7906C-0.882101 74.7601 1.10006 61.6241 6.13198 49.5404C11.1639 37.4566 19.0911 26.7962 29.2149 18.4988C39.3386 10.2014 51.348 4.52174 64.1845 1.96049C77.0211 -0.60075 90.2906 0.0350809 102.823 3.81187C115.356 7.58867 126.768 14.3905 136.052 23.6178C143.501 31.0655 149.388 39.9259 153.368 49.6793C157.347 59.4327 159.338 69.8826 159.225 80.4159C159.286 90.9175 157.257 101.326 153.255 111.036C149.254 120.745 143.359 129.561 135.916 136.97C128.473 144.378 119.629 150.231 109.901 154.188C100.173 158.144 89.755 160.124 79.2537 160.014ZM79.2537 32.5768C73.0426 32.4451 66.871 33.596 61.1248 35.9577C55.3787 38.3194 50.1816 41.8411 45.8583 46.3026C41.3251 50.7395 37.7403 56.0511 35.3217 61.9151C32.903 67.7791 31.7008 74.0733 31.7879 80.4159C31.6886 86.6193 32.8603 92.7774 35.2307 98.5108C37.6012 104.244 41.1201 109.432 45.571 113.754C49.9706 118.235 55.219 121.794 61.0097 124.224C66.8003 126.653 73.017 127.905 79.2967 127.905C85.5764 127.905 91.7932 126.653 97.5839 124.224C103.374 121.794 108.623 118.235 113.022 113.754C117.471 109.431 120.986 104.243 123.352 98.5093C125.718 92.7755 126.883 86.6177 126.777 80.4159C126.893 74.1309 125.746 67.8866 123.404 62.0528C121.063 56.2191 117.574 50.9146 113.145 46.4536C108.716 41.9927 103.437 38.4659 97.6207 36.0822C91.804 33.6986 85.568 32.5066 79.2823 32.5768H79.2537Z" fill="#9A6AFF" fill-opacity="0.4"/>
<path d="M253.84 264.968C243.301 265.158 232.832 263.202 223.073 259.218C213.313 255.234 204.467 249.306 197.071 241.795C191.23 235.876 186.33 229.097 182.541 221.695L213.18 210.812C215.764 213.683 217.746 216.296 220.129 218.708C226.579 225.204 234.767 229.699 243.711 231.652C252.654 233.606 261.971 232.935 270.542 229.72C279.113 226.505 286.573 220.883 292.025 213.53C297.478 206.177 300.69 197.406 301.277 188.271L334.472 188.96C333.279 208.874 324.795 227.652 310.638 241.709C303.252 249.248 294.405 255.199 284.639 259.198C274.872 263.198 264.392 265.161 253.84 264.968Z" fill="#9A6AFF" fill-opacity="0.4"/>
<path d="M90.4751 94.8004C93.7434 93.1975 96.5151 90.7372 98.4944 87.682C100.474 84.6268 101.586 81.0914 101.713 77.4533C101.839 73.8153 100.976 70.2112 99.2141 67.0256C97.4524 63.84 94.8587 61.1927 91.7098 59.3662C91.2959 61.7924 90.1248 64.0253 88.3642 65.7452C86.6036 67.4651 84.3438 68.5837 81.9086 68.9407C79.4734 69.2977 76.9875 68.8748 74.8073 67.7326C72.6272 66.5904 70.8644 64.7876 69.7715 62.5823C69.4902 61.9771 69.2503 61.3535 69.0537 60.7158C64.5338 63.5565 61.3274 68.0763 60.14 73.281C58.9526 78.4856 59.8815 83.9488 62.7222 88.4687C65.5628 92.9886 70.0825 96.195 75.2872 97.3824C80.4919 98.5698 85.9552 97.641 90.4751 94.8004Z" fill="#9A6AFF" fill-opacity="0.4"/>
<path d="M261.503 94.8004C264.772 93.1975 267.543 90.7372 269.523 87.682C271.502 84.6268 272.614 81.0914 272.741 77.4533C272.868 73.8153 272.004 70.2112 270.242 67.0256C268.481 63.84 265.887 61.1927 262.738 59.3662C262.44 61.162 261.72 62.8614 260.637 64.3242C259.554 65.787 258.138 66.9714 256.507 67.7797C255.137 68.4707 253.644 68.8844 252.113 68.9971C250.583 69.1098 249.045 68.9193 247.589 68.4365C246.132 67.9536 244.785 67.1879 243.625 66.1833C242.465 65.1787 241.515 63.955 240.829 62.5823C240.526 61.9831 240.276 61.3586 240.082 60.7158C235.562 63.5565 232.356 68.0763 231.168 73.281C229.981 78.4856 230.91 83.9488 233.75 88.4687C236.591 92.9886 241.111 96.195 246.316 97.3824C251.52 98.5698 256.983 97.641 261.503 94.8004Z" fill="#9A6AFF" fill-opacity="0.4"/>
</svg>
